<?xml version="1.0" encoding="UTF-8" standalone="no"?>
<!DOCTYPE svg PUBLIC "-//W3C//DTD SVG 1.1//EN"
 "http://www.w3.org/Graphics/SVG/1.1/DTD/svg11.dtd">
<!-- Generated by graphviz version 2.38.0 (20140413.2041)
 -->
<!-- Title: %3 Pages: 1 -->
<svg width="492pt" height="603pt"
 viewBox="0.00 0.00 491.56 603.00" xmlns="http://www.w3.org/2000/svg" xmlns:xlink="http://www.w3.org/1999/xlink">
<g id="graph0" class="graph" transform="scale(1 1) rotate(0) translate(4 599)">
<title>%3</title>
<polygon fill="#3f3f3f" stroke="none" points="-4,4 -4,-599 487.564,-599 487.564,4 -4,4"/>
<text text-anchor="middle" x="241.782" y="-9.2" font-family="Times,serif" font-size="16.00" fill="white">Network Map</text>
<!-- R1 -->
<g id="node1" class="node"><title>R1</title>
<polygon fill="#006699" stroke="#006699" points="443.564,-223 367.564,-223 367.564,-150 443.564,-150 443.564,-223"/>
<text text-anchor="middle" x="405.564" y="-182.8" font-family="Helvetica,sans-Serif" font-size="14.00" fill="white">R1</text>
</g>
<!-- SW1 -->
<g id="node5" class="node"><title>SW1</title>
<polygon fill="#006699" stroke="#006699" points="265.064,-347 176.064,-347 176.064,-274 265.064,-274 265.064,-347"/>
<text text-anchor="middle" x="220.564" y="-306.8" font-family="Helvetica,sans-Serif" font-size="14.00" fill="white">SW1</text>
</g>
<!-- R1&#45;&#45;SW1 -->
<g id="edge4" class="edge"><title>R1&#45;&#45;SW1</title>
<path fill="none" stroke="green" stroke-dasharray="5,2" d="M393.984,-223.352C388.713,-235.061 381.4,-247.281 371.564,-256 341.699,-282.475 297.869,-296.079 265.115,-302.923"/>
<text text-anchor="middle" x="433.564" y="-244.8" font-family="Courier,monospace" font-size="14.00" fill="white"> &#160;&#160;&#160;&#160;&#160;&#160;&#160;&#160;&#160;&#160;&#160;</text>
<text text-anchor="middle" x="294.115" y="-291.723" font-family="Courier,monospace" font-size="14.00" fill="white">Eth 0/1</text>
<text text-anchor="middle" x="364.984" y="-227.152" font-family="Courier,monospace" font-size="14.00" fill="white">Eth 0/0</text>
</g>
<!-- R5 -->
<g id="node2" class="node"><title>R5</title>
<polygon fill="#006699" stroke="#006699" points="105.564,-99 29.564,-99 29.564,-26 105.564,-26 105.564,-99"/>
<text text-anchor="middle" x="67.564" y="-58.8" font-family="Helvetica,sans-Serif" font-size="14.00" fill="white">R5</text>
</g>
<!-- R2 -->
<g id="node3" class="node"><title>R2</title>
<polygon fill="#006699" stroke="#006699" points="128.564,-471 52.564,-471 52.564,-398 128.564,-398 128.564,-471"/>
<text text-anchor="middle" x="90.564" y="-430.8" font-family="Helvetica,sans-Serif" font-size="14.00" fill="white">R2</text>
</g>
<!-- R5&#45;&#45;R2 -->
<g id="edge5" class="edge"><title>R5&#45;&#45;R2</title>
<path fill="none" stroke="green" stroke-dasharray="5,2" d="M58,-99.3541C48.9171,-138.03 37.6054,-201.411 44.564,-256 50.9643,-306.21 67.1591,-362.522 78.5128,-397.987"/>
<text text-anchor="middle" x="94.564" y="-244.8" font-family="Courier,monospace" font-size="14.00" fill="white"> &#160;&#160;&#160;&#160;&#160;&#160;&#160;&#160;&#160;&#160;&#160;</text>
<text text-anchor="middle" x="49.5128" y="-386.787" font-family="Courier,monospace" font-size="14.00" fill="white">Eth 0/1</text>
<text text-anchor="middle" x="29" y="-103.154" font-family="Courier,monospace" font-size="14.00" fill="white">Eth 0/0</text>
</g>
<!-- R4 -->
<g id="node4" class="node"><title>R4</title>
<polygon fill="#006699" stroke="#006699" points="168.564,-223 92.564,-223 92.564,-150 168.564,-150 168.564,-223"/>
<text text-anchor="middle" x="130.564" y="-182.8" font-family="Helvetica,sans-Serif" font-size="14.00" fill="white">R4</text>
</g>
<!-- R5&#45;&#45;R4 -->
<g id="edge1" class="edge"><title>R5&#45;&#45;R4</title>
<path fill="none" stroke="green" stroke-dasharray="5,2" d="M85.9555,-99.1154C94.1636,-115.01 103.817,-133.704 112.04,-149.629"/>
<text text-anchor="middle" x="153.564" y="-120.8" font-family="Courier,monospace" font-size="14.00" fill="white"> &#160;&#160;&#160;&#160;&#160;&#160;&#160;&#160;&#160;&#160;&#160;</text>
<text text-anchor="middle" x="83.0405" y="-138.429" font-family="Courier,monospace" font-size="14.00" fill="white">Eth 0/1</text>
<text text-anchor="middle" x="114.956" y="-102.915" font-family="Courier,monospace" font-size="14.00" fill="white">Eth 0/1</text>
</g>
<!-- R6 -->
<g id="node6" class="node"><title>R6</title>
<polygon fill="#006699" stroke="#006699" points="128.564,-595 52.564,-595 52.564,-522 128.564,-522 128.564,-595"/>
<text text-anchor="middle" x="90.564" y="-554.8" font-family="Helvetica,sans-Serif" font-size="14.00" fill="white">R6</text>
</g>
<!-- R2&#45;&#45;R6 -->
<g id="edge6" class="edge"><title>R2&#45;&#45;R6</title>
<path fill="none" stroke="green" stroke-dasharray="5,2" d="M90.564,-471.115C90.564,-487.01 90.564,-505.704 90.564,-521.629"/>
<text text-anchor="middle" x="140.564" y="-492.8" font-family="Courier,monospace" font-size="14.00" fill="white"> &#160;&#160;&#160;&#160;&#160;&#160;&#160;&#160;&#160;&#160;&#160;</text>
<text text-anchor="middle" x="61.564" y="-510.429" font-family="Courier,monospace" font-size="14.00" fill="white">Eth 0/1</text>
<text text-anchor="middle" x="61.564" y="-474.915" font-family="Courier,monospace" font-size="14.00" fill="white">Eth 0/2</text>
</g>
<!-- R4&#45;&#45;SW1 -->
<g id="edge2" class="edge"><title>R4&#45;&#45;SW1</title>
<path fill="none" stroke="green" stroke-dasharray="5,2" d="M140.164,-223.02C144.169,-234.184 149.556,-246.155 156.564,-256 162.023,-263.669 168.836,-270.892 175.963,-277.402"/>
<text text-anchor="middle" x="206.564" y="-244.8" font-family="Courier,monospace" font-size="14.00" fill="white"> &#160;&#160;&#160;&#160;&#160;&#160;&#160;&#160;&#160;&#160;&#160;</text>
<text text-anchor="middle" x="146.963" y="-266.202" font-family="Courier,monospace" font-size="14.00" fill="white">Eth 0/4</text>
<text text-anchor="middle" x="111.164" y="-226.82" font-family="Courier,monospace" font-size="14.00" fill="white">Eth 0/0</text>
</g>
<!-- SW1&#45;&#45;R2 -->
<g id="edge7" class="edge"><title>SW1&#45;&#45;R2</title>
<path fill="none" stroke="green" stroke-dasharray="5,2" d="M182.613,-347.115C165.676,-363.01 145.756,-381.704 128.787,-397.629"/>
<text text-anchor="middle" x="213.564" y="-368.8" font-family="Courier,monospace" font-size="14.00" fill="white"> &#160;&#160;&#160;&#160;&#160;&#160;&#160;&#160;&#160;&#160;&#160;</text>
<text text-anchor="middle" x="157.787" y="-386.429" font-family="Courier,monospace" font-size="14.00" fill="white">Eth 0/0</text>
<text text-anchor="middle" x="153.613" y="-350.915" font-family="Courier,monospace" font-size="14.00" fill="white">Eth 0/2</text>
</g>
<!-- R3 -->
<g id="node7" class="node"><title>R3</title>
<polygon fill="#006699" stroke="#006699" points="320.564,-223 244.564,-223 244.564,-150 320.564,-150 320.564,-223"/>
<text text-anchor="middle" x="282.564" y="-182.8" font-family="Helvetica,sans-Serif" font-size="14.00" fill="white">R3</text>
</g>
<!-- R3&#45;&#45;SW1 -->
<g id="edge3" class="edge"><title>R3&#45;&#45;SW1</title>
<path fill="none" stroke="green" stroke-dasharray="5,2" d="M273.534,-223.245C270.157,-234.069 265.834,-245.788 260.564,-256 257.479,-261.977 253.739,-267.993 249.799,-273.721"/>
<text text-anchor="middle" x="317.564" y="-244.8" font-family="Courier,monospace" font-size="14.00" fill="white"> &#160;&#160;&#160;&#160;&#160;&#160;&#160;&#160;&#160;&#160;&#160;</text>
<text text-anchor="middle" x="220.799" y="-262.521" font-family="Courier,monospace" font-size="14.00" fill="white">Eth 0/3</text>
<text text-anchor="middle" x="244.534" y="-227.045" font-family="Courier,monospace" font-size="14.00" fill="white">Eth 0/0</text>
</g>
</g>
</svg>
